<svg version="1.0" xmlns="http://www.w3.org/2000/svg" viewBox="0 0 114.000000 114.000000"
    preserveAspectRatio="xMidYMid meet">

    <!-- Add the gray circle here -->

    <g transform="translate(0.000000,114.000000) scale(0.100000,-0.100000)" stroke="none">
        <path d="M228 767 l-198 -200 0 -83 0 -84 200 0 200 0 0 -100 0 -101 103 3
        102 3 0 185 0 185 -183 0 c-100 0 -182 2 -182 5 0 3 83 88 184 189 102 102
        183 188 180 193 -3 4 -51 7 -107 6 l-102 -1 -197 -200z" />
        <path d="M710 865 c0 -58 3 -105 7 -105 4 0 49 42 100 92 l93 93 0 -85 0 -85
        -100 -100 -100 -100 0 -107 0 -108 205 0 205 0 0 110 0 110 -100 -102 -99
        -103 -1 95 0 95 100 100 100 100 0 102 0 103 -205 0 -205 0 0 -105z" />
    </g>
</svg>